<svg xmlns="http://www.w3.org/2000/svg" fill-rule="evenodd" stroke-linejoin="round" stroke-miterlimit="2" clip-rule="evenodd" viewBox="0 0 3000 2161" id="tax-percentage">
  <g transform="matrix(2 0 0 2 -16000 .34)">
    <rect width="1500" height="1080" x="8000" fill="none"></rect>
    <g transform="translate(1650.43 -15.762)">
      <g transform="matrix(-1.44452 0 0 1.44452 10984 -504.729)">
        <path fill="#10243e" d="M2900.74,502.321C2900.74,502.321 2911.43,528.521 2928.25,548.367C2945.07,568.213 2950.95,584.99 2931.2,601.761C2931.2,601.761 2943.07,625.671 2899.66,635.954C2856.25,646.238 2828.74,627.937 2819.37,612.743C2819.37,612.743 2780.56,582.941 2774.3,559.789C2768.04,536.636 2778.39,534.735 2785.95,514.397C2793.5,494.059 2900.74,502.321 2900.74,502.321Z" transform="rotate(-25.029 2862.249 518.83)"></path>
        <path fill="#10243e" d="M2813.68,851.173C2813.68,851.173 2819.68,874.116 2813.68,880.608C2807.68,887.101 2793,893.081 2777.34,894.178C2763.64,895.138 2758.72,883.725 2770.8,874.184C2782.88,864.644 2790.94,861.134 2790.42,847.424L2813.68,851.173Z"></path>
        <path fill="#4b61dc" d="M2796.27,662.985C2796.27,662.985 2777.96,813.385 2770.8,850.875C2770.8,850.875 2815.06,871.308 2843.47,853.172C2843.47,853.172 2858.61,722.795 2856.32,669.592L2796.27,662.985Z"></path>
        <path fill="#10243e" d="M2795.29,671.015L2792.3,695.071C2792.3,695.071 2824.27,715.748 2856.23,705.385L2856.56,677.757L2795.29,671.015Z"></path>
        <g transform="matrix(.96927 -.246 .24594 .969 -11.637 710.359)">
          <path fill="#10243e" d="M2813.68,851.173C2813.68,851.173 2819.68,874.116 2813.68,880.608C2807.68,887.101 2793,893.081 2777.34,894.178C2763.64,895.138 2758.72,883.725 2770.8,874.184C2782.88,864.644 2790.94,861.134 2790.42,847.424L2813.68,851.173Z"></path>
          <path fill="#4b61dc" d="M2796.27,662.985C2796.27,662.985 2777.96,813.385 2770.8,850.875C2770.8,850.875 2815.06,871.308 2843.47,853.172C2843.47,853.172 2859.78,710.495 2860.73,655.47L2796.27,662.985Z"></path>
          <path fill="#10243e" d="M2795.29,671.015L2791.42,707.789C2791.42,707.789 2825.51,710.07 2857.47,699.707L2859.97,667.699L2795.29,671.015Z" transform="translate(1.776 -11.248)"></path>
        </g>
        <path fill="#7887da" d="M2786.68,565.085C2778.28,579.094 2761.73,601.718 2754.35,606.173C2744.05,612.385 2716.54,592.63 2716.54,592.63C2716.54,592.63 2690.47,612.89 2694.11,634.889C2694.11,634.889 2715.74,658.064 2745.42,657.2C2775.11,656.335 2790.36,647.838 2807.12,616.563C2823.87,585.289 2821.39,571.917 2821.39,571.917L2786.68,565.085Z" transform="translate(4.667 -10.915)"></path>
        <path fill="#88daff" d="M2705.77,611.871C2705.77,611.871 2721.11,604.506 2724.51,590.909C2724.51,590.909 2718.86,576.814 2715.61,570.346C2712.35,563.877 2702.25,563.349 2693.68,563.823C2684.23,564.346 2681.27,564.728 2681,570.195C2680.74,575.661 2688.7,606.662 2705.77,611.871Z" transform="rotate(-25.5 2718.079 593.794)"></path>
        <path fill="#10243e" d="M2702.31,562.67C2702.31,562.67 2681.77,601.212 2678.26,608.693C2676.39,612.68 2674.73,619.656 2676.69,620.869C2678.41,621.932 2683.45,616.839 2685.18,614.039C2687.69,609.986 2709.56,566.856 2709.56,566.856C2709.56,566.856 2711.12,557.621 2702.31,562.67Z" transform="rotate(25.061 2705.986 591.364)"></path>
        <path fill="#88daff" d="M3915.03,1721.24C3915.03,1721.24 3924.61,1722.08 3933.52,1711.74C3933.52,1711.74 3957.14,1713.34 3956.27,1704.58C3955.4,1695.83 3942.58,1692.2 3929.17,1694.21C3915.75,1696.22 3906.48,1705.19 3906.48,1705.19L3915.03,1721.24Z" transform="matrix(-.69227 0 0 .69227 5423.52 -591.324)"></path>
        <path fill="#10243e" d="M2776.96,576.541C2776.96,576.541 2770.81,600.021 2774.43,610.777C2778.05,621.533 2783.49,624.491 2786.34,621.413C2789.2,618.336 2786.34,602.466 2786.34,602.466L2776.96,576.541Z" transform="matrix(1.20851 0 0 1.19039 -568.854 -104.334)"></path>
        <g>
          <path fill="#7887da" d="M2868.77,530.171L2809.15,533.661C2809.15,533.661 2789.59,554.854 2789.99,572.75C2790.33,587.986 2797.86,602.076 2797.86,602.076L2786.14,664.039C2786.14,664.039 2825.85,681.784 2865.99,668.358C2906.13,654.933 2929.09,629.082 2929.09,629.082L2868.77,530.171Z" transform="translate(-254.067 -45.963)scale(1.08899)"></path>
          <path fill="#10243e" d="M4121.24,295.853C4121.24,295.853 4100.69,338.632 4069.82,346.281C4038.95,353.93 4020.24,342.082 4023.24,323.063C4026.24,304.044 4121.24,295.853 4121.24,295.853Z" transform="translate(216.078 349.022)scale(.64315)"></path>
          <path fill="#10243e" d="M2872.7,580.039L2898.1,618.108C2898.1,618.108 2888.86,664.096 2904.32,673.079C2904.32,673.079 2921.19,658.393 2935.68,638.955L2894.46,567.833L2872.7,580.039Z"></path>
        </g>
        <g transform="rotate(-100.191 2838.688 535.806)">
          <path fill="#7887da" d="M2786.68,565.085C2778.28,579.094 2761.73,601.718 2754.35,606.173C2744.05,612.385 2716.54,592.63 2716.54,592.63C2716.54,592.63 2690.47,612.89 2694.11,634.889C2694.11,634.889 2715.74,658.064 2745.42,657.2C2775.11,656.335 2790.36,647.838 2807.12,616.563C2823.87,585.289 2821.39,571.917 2821.39,571.917L2786.68,565.085Z" transform="translate(4.667 -10.915)"></path>
          <path fill="#88daff" d="M2705.77,611.871C2705.77,611.871 2721.11,604.506 2724.51,590.909C2724.51,590.909 2718.86,576.814 2715.61,570.346C2712.35,563.877 2702.25,563.349 2693.68,563.823C2684.23,564.346 2681.27,564.728 2681,570.195C2680.74,575.661 2692.53,575.63 2692.53,575.63C2692.53,575.63 2682.24,578.495 2683.86,583.899C2685.49,589.304 2696.6,587.616 2696.6,587.616C2696.6,587.616 2683.97,588.799 2685.19,596.431C2685.6,598.976 2694.71,600.261 2694.71,600.261C2694.71,600.261 2695.84,610.162 2705.77,611.871Z" transform="rotate(-25.5 2713.727 601.94)"></path>
        </g>
        <g transform="translate(14.204 13.392)">
          <circle cx="4130.62" cy="301.881" r="60.72" fill="#88daff" transform="translate(-1043.74 212.618)scale(.93182)"></circle>
          <path fill="#10243e" d="M2853.61,447.95C2853.61,447.95 2836,415.803 2808.71,419.358C2781.42,422.912 2779.19,434.954 2779.19,434.954C2779.19,434.954 2756.69,420.666 2733.93,441.966C2711.18,463.267 2725.87,496.44 2754.95,492.371C2754.95,492.371 2767.39,510.461 2786.55,497.326C2786.55,497.326 2809.3,516.596 2822.16,492.698C2822.16,492.698 2824,504.683 2838.63,504.449C2838.63,504.449 2836.06,482.219 2852.51,487.238C2868.96,492.258 2863.79,513.749 2850.49,518.883C2848.15,535.688 2866.76,558.632 2893.73,539.037C2916.46,522.52 2904.94,494.373 2887.46,490.59C2887.46,490.59 2899.27,440.854 2853.61,447.95Z" transform="translate(-1.805 -9.352)"></path>
        </g>
      </g>
      <g transform="translate(60.217 16.102)">
        <path fill="#e1e3ee" d="M2702.58,1984.76C2723.95,2005.19 2735.91,2028.05 2735.91,2052.16C2735.91,2138.83 2581.44,2209.19 2391.17,2209.19C2200.9,2209.19 2046.43,2138.83 2046.43,2052.16C2046.43,1965.5 2200.9,1895.14 2391.17,1895.14C2485.85,1895.14 2571.66,1912.56 2633.99,1940.74L2680.97,1913.62C2710.75,1930.81 2734.15,1951.33 2749.74,1973.91L2702.58,1984.76Z" transform="translate(4694.6 -1224.89)"></path>
        <g transform="translate(-105.403 149.787)">
          <path fill="#4b61dc" d="M2129.18,1805.2C2141.56,1791.2 2157.9,1778.07 2178.18,1766.36C2282.44,1706.17 2451.48,1706.17 2555.74,1766.36L2178.18,1984.35C2126.4,1954.46 2100.36,1915.3 2100.03,1876.09L2100.03,1876.09L2100.03,1805.2L2129.18,1805.2Z" transform="translate(4408.92 -1514.29)scale(1.16072)"></path>
          <path fill="#7887da" d="M-38.827,2813.33C-38.827,2709.07 -136.424,2624.55 -256.815,2624.55C-377.126,2624.55 -474.802,2709.14 -474.802,2813.33L-38.827,2813.33Z" transform="matrix(1.00521 -.58036 1.16072 .67014 4148.96 -1450.46)"></path>
        </g>
        <g transform="translate(-19.733 -17.902)">
          <g transform="translate(-1267.92 231.098)scale(1.16072)">
            <path fill="#88daff" d="M-56.574,2887.94C-44.866,2864.38 -38.827,2838.99 -38.827,2813.33L-256.815,2813.33L-56.574,2887.94Z" transform="rotate(-30 -248.938 -9323.463)skewX(30)"></path>
            <path fill="#40c3fd" d="M2614.98,1730.87L2366.99,1785.13L2366.99,1861.54L2614.98,1807.28L2614.98,1730.87Z" transform="matrix(1 0 0 1.05092 4852.34 -1496.94)"></path>
          </g>
          <g transform="translate(6221.32 -694.377)scale(1.54899)">
            <path fill="#7887da" d="M-377.844,1056.61C-369.117,1056.61 -374.298,1070.22 -369.535,1075.91C-366.407,1079.64 -351.645,1074.33 -351.645,1079.29C-351.645,1091.82 -363.384,1101.98 -377.844,1101.98C-392.303,1101.98 -404.042,1091.82 -404.042,1079.29C-404.042,1066.77 -392.303,1056.61 -377.844,1056.61Z" transform="rotate(-30 10.238 92.34)skewX(30)"></path>
            <path fill="#7887da" d="M681.492,821.249L707.274,832.84L675.194,829.548L675.194,821.249L681.492,821.249ZM739.354,821.381L739.354,830.016L717.456,838.006L732.653,821.381L739.354,821.381Z"></path>
            <ellipse cx="-377.844" cy="1079.29" fill="#abb3db" rx="26.198" ry="22.689" transform="rotate(-30 -5.266 88.186)skewX(30)"></ellipse>
            <g transform="matrix(.70048 -.40442 .80885 .46699 98.963 164.409)">
              <ellipse cx="-377.844" cy="1079.29" fill="#7887da" rx="26.198" ry="22.689"></ellipse>
              <clipPath id="a">
                <ellipse cx="-377.844" cy="1079.29" rx="26.198" ry="22.689"></ellipse>
              </clipPath>
              <g clip-path="url(#a)">
                <ellipse cx="-377.844" cy="1079.29" fill="#abb3db" rx="26.198" ry="22.689" transform="translate(-2.961 2.565)"></ellipse>
              </g>
            </g>
          </g>
          <g transform="translate(6227.08 -712.43)scale(1.54899)">
            <path fill="#7887da" d="M-377.844,1056.61C-369.117,1056.61 -374.298,1070.22 -369.535,1075.91C-366.407,1079.64 -351.645,1074.33 -351.645,1079.29C-351.645,1091.82 -363.384,1101.98 -377.844,1101.98C-392.303,1101.98 -404.042,1091.82 -404.042,1079.29C-404.042,1066.77 -392.303,1056.61 -377.844,1056.61Z" transform="rotate(-30 10.238 92.34)skewX(30)"></path>
            <path fill="#7887da" d="M681.492,821.249L707.274,832.84L675.194,829.548L675.194,821.249L681.492,821.249ZM739.354,821.381L739.354,830.016L717.456,838.006L732.653,821.381L739.354,821.381Z"></path>
            <ellipse cx="-377.844" cy="1079.29" fill="#abb3db" rx="26.198" ry="22.689" transform="rotate(-30 -5.266 88.186)skewX(30)"></ellipse>
            <g transform="matrix(.70048 -.40442 .80885 .46699 98.963 164.409)">
              <ellipse cx="-377.844" cy="1079.29" fill="#7887da" rx="26.198" ry="22.689"></ellipse>
              <clipPath id="b">
                <ellipse cx="-377.844" cy="1079.29" rx="26.198" ry="22.689"></ellipse>
              </clipPath>
              <g clip-path="url(#b)">
                <ellipse cx="-377.844" cy="1079.29" fill="#abb3db" rx="26.198" ry="22.689" transform="translate(-2.961 2.565)"></ellipse>
              </g>
            </g>
          </g>
        </g>
        <g transform="translate(-105.403 149.787)">
          <path fill="#4b61dc" d="M2555.74,1831.94L2555.74,1806.68L2633.95,1806.68L2633.95,1877.14L2633.93,1877.14C2633.12,1916.65 2606.01,1955.33 2555.74,1984.35C2451.55,2044.51 2282.37,2044.51 2178.18,1984.35L2178.18,1916.67L2366.96,1875.36L2555.74,1831.94Z" transform="translate(4408.92 -1514.29)scale(1.16072)"></path>
          <path fill="#7887da" d="M-609.722,2748.98C-609.722,2853.17 -522.661,2937.76 -415.425,2937.76C-337.8,2937.76 -267.625,2892.87 -236.946,2823.59L-415.425,2748.98L-609.722,2748.98Z" transform="matrix(1.12777 -.65112 1.16072 .67014 4434.01 -1528.78)"></path>
        </g>
        <g transform="translate(21.488 -190.484)scale(1.19159)">
          <g transform="translate(44.93 384.477)">
            <rect width="179.303" height="85.373" x="-1258.54" y="1923.99" fill="#10243e" transform="matrix(.86603 -.5 .987 .56984 4825.02 -1360.23)"></rect>
            <rect width="75.614" height="25.707" x="984.78" y="1089.93" fill="#88daff" transform="matrix(1.11437 .64338 0 1.1547 4536.65 -1526.72)"></rect>
            <rect width="179.303" height="25.707" x="1060.39" y="2008.26" fill="#40c3fd" transform="rotate(-30 -165.162 -9644.255)skewX(-30)"></rect>
            <rect width="179.303" height="25.707" x="1060.39" y="2008.26" fill="#e1e3ee" transform="matrix(.1018 -.05877 0 1.0982 5679.71 -1767.66)"></rect>
            <rect width="20.971" height="70.479" x="-1163.19" y="1937.78" fill="#f2f3f7" transform="matrix(.86603 -.5 1.27477 .73599 4235.03 -1684.21)"></rect>
          </g>
          <g transform="translate(36.846 354.901)">
            <rect width="179.303" height="85.373" x="-1258.54" y="1923.99" fill="#40c3fd" transform="matrix(.86603 -.5 .987 .56984 4825.02 -1360.23)"></rect>
            <path fill="#10243e" d="M-1079.24,1923.99L-1253.16,1923.99C-1260.31,1953 -1255,1980.96 -1253.16,2009.05L-1079.24,2009.37L-1079.24,1923.99Z" transform="matrix(.84632 -.48862 1.00173 .57835 4775.4 -1364.31)"></path>
            <rect width="75.614" height="25.707" x="984.78" y="1089.93" fill="#88daff" transform="matrix(1.11437 .64338 0 1.1547 4536.65 -1526.72)"></rect>
            <rect width="179.303" height="25.707" x="1060.39" y="2008.26" fill="#40c3fd" transform="rotate(-30 -165.162 -9644.255)skewX(-30)"></rect>
            <rect width="179.303" height="25.707" x="1060.39" y="2008.26" fill="#e1e3ee" transform="matrix(.1018 -.05877 0 1.0982 5679.71 -1767.66)"></rect>
            <path fill="#88daff" d="M-1075.07,1916.7C-1134.5,1923.74 -1187.88,1924.26 -1241.19,1906.24C-1250.84,1934.4 -1249.79,1962.49 -1248.08,1990.59C-1201.59,2003.76 -1142.89,2006 -1075.07,1998.56L-1075.07,1916.7Z" transform="matrix(.86603 -.5 1.0771 .62186 4652.01 -1460.12)"></path>
            <ellipse cx="-1185.21" cy="1994.36" fill="#40c3fd" rx="28.644" ry="24.806" transform="matrix(1.0441 -.60281 1.20563 .69607 4584.93 -1758.88)"></ellipse>
            <path fill="#40c3fd" d="M909.618,1733.34C910.069,1733.99 892.039,1742.45 886.483,1743.39L891.719,1748.11C891.719,1748.11 905.468,1743.49 915.625,1736.81L909.618,1733.34Z" transform="translate(4800.91 -1372.72)"></path>
            <path fill="#40c3fd" d="M907.1,1729.74C907.551,1730.38 892.3,1740.81 886.483,1743.39L891.719,1748.11C891.719,1748.11 904.317,1742.42 913.107,1733.2L907.1,1729.74Z" transform="translate(4901.17 -1425.42)"></path>
            <rect width="20.971" height="70.479" x="-1163.19" y="1937.78" fill="#f2f3f7" transform="matrix(.86603 -.5 1.27477 .73599 4235.03 -1684.21)"></rect>
          </g>
        </g>
      </g>
      <g transform="translate(5324.28 -601.154)scale(1.58202)">
        <ellipse cx="877.721" cy="889.003" fill="#e1e3ee" rx="21.115" ry="9.004" transform="translate(-9.924 .883)"></ellipse>
        <ellipse cx="877.721" cy="889.003" fill="#e1e3ee" rx="21.115" ry="9.004" transform="matrix(1.34909 0 0 1.24436 -300.985 -202.693)"></ellipse>
        <g transform="rotate(-14.449 873.396 863.826)">
          <path fill="#40c3fd" d="M838.433,898.119C833.162,887.161 815.313,861.946 826.27,847.845C836.404,834.805 850.049,852.676 852.971,867.264C852.971,867.264 844.283,804.651 865.345,803.464C886.407,802.277 879.17,842.957 875.433,859.855C875.433,859.855 893.722,826.362 906.47,838.374C919.218,850.386 877.53,902.745 877.53,902.745C874.744,907.718 867.016,913.537 857.893,913.593C850.348,913.639 842.025,905.587 838.433,898.119Z" transform="translate(12.374 -23.201)"></path>
          <path fill="#f2f3f7" d="M878.738,795.336C878.775,794.743 879.287,794.293 879.879,794.331C880.471,794.368 880.921,794.879 880.884,795.471C880.884,795.471 876.527,864.212 869.915,890.957C869.773,891.533 869.19,891.885 868.614,891.743C868.038,891.6 867.686,891.017 867.828,890.441C874.413,863.803 878.738,795.336 878.738,795.336Z"></path>
          <path fill="#f2f3f7" d="M851.167 841.899C851.041 841.32 851.409 840.747 851.989 840.621 852.569 840.495 853.142 840.863 853.268 841.443 853.268 841.443 855.421 851.349 860.07 860.615 863.096 866.647 867.16 872.44 872.452 874.865 872.992 875.113 873.229 875.751 872.982 876.291 872.735 876.83 872.096 877.067 871.557 876.82 865.866 874.212 861.402 868.065 858.148 861.579 853.376 852.068 851.167 841.899 851.167 841.899ZM874.738 862.478C874.186 862.696 873.561 862.426 873.342 861.875 873.123 861.323 873.393 860.698 873.945 860.479 873.945 860.479 896.89 851.407 905.683 833.186 905.941 832.651 906.584 832.427 907.119 832.685 907.653 832.943 907.878 833.586 907.62 834.12 898.498 853.021 874.738 862.478 874.738 862.478Z"></path>
        </g>
        <g transform="translate(-13.141 8.42)">
          <path fill="#10243e" d="M890.496,864.055C903.226,863.912 899.717,872.701 907.727,877.88C915.065,882.625 914.901,892.996 903.139,895.137C891.378,897.278 881.4,896.939 873.266,894.478C858.592,890.037 861.515,879.578 870.899,876.523C878.665,873.996 881.049,864.16 890.496,864.055Z" transform="translate(8.56 .309)"></path>
          <ellipse cx="901.391" cy="872.661" fill="#e1e3ee" rx="1.934" ry="1.863" transform="translate(-466.967 -452.088)scale(1.51916)"></ellipse>
          <ellipse cx="906.34" cy="878.462" fill="#e1e3ee" rx="1.007" ry="1.354" transform="matrix(1.46885 0 0 1 -424.468 0)"></ellipse>
        </g>
      </g>
      <g transform="translate(3543.17 -127.39)scale(1.78322)">
        <circle cx="2144.31" cy="280.09" r="73.208" fill="#4b61dc" transform="translate(-18.874 -21.204)"></circle>
        <path fill="#f2f3f7" fill-rule="nonzero" d="M2520.61,1734.83L2532.09,1718.03L2534.94,1718.03L2523.47,1734.83L2520.61,1734.83ZM2522.08,1727.1C2521.26,1727.1 2520.54,1726.91 2519.92,1726.54C2519.29,1726.16 2518.8,1725.62 2518.44,1724.93C2518.08,1724.23 2517.9,1723.41 2517.9,1722.47C2517.9,1721.53 2518.08,1720.71 2518.44,1720.02C2518.8,1719.33 2519.29,1718.8 2519.92,1718.41C2520.54,1718.03 2521.26,1717.84 2522.08,1717.84C2522.89,1717.84 2523.61,1718.03 2524.24,1718.41C2524.86,1718.8 2525.35,1719.33 2525.7,1720.02C2526.05,1720.71 2526.23,1721.53 2526.23,1722.47C2526.23,1723.41 2526.05,1724.23 2525.7,1724.93C2525.35,1725.62 2524.86,1726.16 2524.24,1726.54C2523.61,1726.91 2522.89,1727.1 2522.08,1727.1ZM2522.08,1725.13C2522.61,1725.13 2523.03,1724.91 2523.35,1724.47C2523.67,1724.03 2523.83,1723.37 2523.83,1722.47C2523.83,1721.57 2523.67,1720.9 2523.35,1720.47C2523.03,1720.03 2522.61,1719.81 2522.08,1719.81C2521.57,1719.81 2521.15,1720.03 2520.82,1720.47C2520.49,1720.9 2520.33,1721.57 2520.33,1722.47C2520.33,1723.35 2520.49,1724.01 2520.82,1724.46C2521.15,1724.91 2521.57,1725.13 2522.08,1725.13ZM2533.48,1735.02C2532.68,1735.02 2531.96,1734.83 2531.33,1734.46C2530.7,1734.08 2530.21,1733.55 2529.85,1732.85C2529.5,1732.15 2529.33,1731.33 2529.33,1730.39C2529.33,1729.44 2529.5,1728.63 2529.85,1727.94C2530.21,1727.25 2530.7,1726.72 2531.33,1726.33C2531.96,1725.95 2532.68,1725.76 2533.48,1725.76C2534.31,1725.76 2535.04,1725.95 2535.66,1726.33C2536.29,1726.72 2536.77,1727.25 2537.13,1727.94C2537.48,1728.63 2537.65,1729.44 2537.65,1730.39C2537.65,1731.33 2537.48,1732.15 2537.13,1732.85C2536.77,1733.55 2536.29,1734.08 2535.66,1734.46C2535.04,1734.83 2534.31,1735.02 2533.48,1735.02ZM2533.48,1733.05C2534.01,1733.05 2534.43,1732.83 2534.75,1732.39C2535.07,1731.95 2535.23,1731.29 2535.23,1730.39C2535.23,1729.51 2535.07,1728.85 2534.75,1728.4C2534.43,1727.95 2534.01,1727.73 2533.48,1727.73C2532.97,1727.73 2532.55,1727.94 2532.22,1728.38C2531.89,1728.83 2531.73,1729.49 2531.73,1730.39C2531.73,1731.29 2531.89,1731.95 2532.22,1732.39C2532.55,1732.83 2532.97,1733.05 2533.48,1733.05Z" transform="translate(-6873.86 -5887.48)scale(3.56016)"></path>
        <path fill="#4b61dc" d="M2121.8,306.453C2123.12,303.438 2125.69,301.556 2128.48,301.556C2131.27,301.556 2133.84,303.438 2135.16,306.453C2144.91,328.716 2161.89,367.49 2161.89,367.49L2095.06,367.49C2095.06,367.49 2112.05,328.716 2121.8,306.453Z" transform="matrix(-1 0 0 -.81615 4253.92 599.916)"></path>
      </g>
    </g>
  </g>
</svg>
