<svg xmlns="http://www.w3.org/2000/svg" version="1.1" xmlns:xlink="http://www.w3.org/1999/xlink" xmlns:svgjs="http://svgjs.dev/svgjs" width="1500" height="1500" viewBox="0 0 1500 1500"><g transform="matrix(1,0,0,1,-0.7499999999998863,-0.7499999999998863)"><svg viewBox="0 0 280 280" data-background-color="#ffffff" preserveAspectRatio="xMidYMid meet" height="1500" width="1500" xmlns="http://www.w3.org/2000/svg" xmlns:xlink="http://www.w3.org/1999/xlink"><g id="tight-bounds" transform="matrix(1,0,0,1,0.13999999999998636,0.13999999999998636)"><svg viewBox="0 0 279.72 279.72" height="279.72" width="279.72"><g><svg viewBox="0 0 279.72 279.72" height="279.72" width="279.72"><g><svg viewBox="0 0 279.72 279.72" height="279.72" width="279.72"><g id="textblocktransform"><svg viewBox="0 0 279.72 279.72" height="279.72" width="279.72" id="textblock"><g><svg viewBox="0 0 279.72 279.72" height="279.72" width="279.72"><g transform="matrix(1,0,0,1,57.446704652707865,57.446704652707865)"><svg viewBox="0 0 164.8265906945843 164.8265906945843" height="164.8265906945843" width="164.8265906945843"><g id="icon-0"><circle r="82" cx="82.41329534729215" cy="82.41329534729215" fill="#383961" data-fill-palette-color="accent"></circle><svg xmlns="http://www.w3.org/2000/svg" xmlns:xlink="http://www.w3.org/1999/xlink" version="1.1" x="24.72398860418764" y="24.723988604187646" viewBox="0 0 128 128" style="enable-background:new 0 0 128 128;" xml:space="preserve" height="115.378613486209" width="115.378613486209" class="icon-jxe-0" data-fill-palette-color="quaternary" id="jxe-0"><path d="M117 65.08V18A1 1 0 0 0 116 17H101V6A1 1 0 0 0 100 5H24A1 1 0 0 0 23 6V17H16C9.935 17 5 21.935 5 28V114C5 118.963 9.038 123 14 123H108C112.962 123 117 118.963 117 114V90.92C120.387 90.432 123 87.519 123 84V72C123 68.481 120.387 65.568 117 65.08M115 19V37H101V19zM99 37H93V7H99zM91 7V37H85V7zM82 7H83V37H77V22A1 1 0 0 0 76 21C72.14 21 69 17.859 69 14A1 1 0 0 0 68 13H40A1 1 0 0 0 39 14C39 17.859 35.86 21 32 21A1 1 0 0 0 31 22V37H25V7zM75 37H33V22.944A9.02 9.02 0 0 0 40.945 15H67.055A9.02 9.02 0 0 0 75 22.944zM16 19H23V37H16C11.038 37 7 32.963 7 28S11.038 19 16 19M108 121H14C10.14 121 7 117.859 7 114V34.318C7.053 34.393 7.117 34.46 7.171 34.534 7.336 34.757 7.507 34.975 7.689 35.185 7.783 35.294 7.88 35.398 7.978 35.503 8.158 35.696 8.345 35.881 8.539 36.06 8.642 36.155 8.743 36.251 8.849 36.342 9.074 36.535 9.309 36.716 9.549 36.891 9.631 36.951 9.709 37.016 9.793 37.074 10.121 37.299 10.461 37.507 10.813 37.696 10.892 37.738 10.975 37.772 11.055 37.813 11.333 37.954 11.616 38.086 11.908 38.203 12.037 38.255 12.168 38.299 12.299 38.346A11 11 0 0 0 13.504 38.704C13.781 38.768 14.062 38.819 14.346 38.862 14.476 38.882 14.604 38.906 14.736 38.922 15.151 38.969 15.572 39 16 39H115V65H102C94.832 65 89 70.832 89 78S94.832 91 102 91H115V114C115 117.859 111.86 121 108 121M121 84C121 86.757 118.757 89 116 89H102C95.935 89 91 84.065 91 78S95.935 67 102 67H116C118.757 67 121 69.243 121 72z" fill="#ffffff" data-fill-palette-color="quaternary"></path><path d="M102 73C99.243 73 97 75.243 97 78S99.243 83 102 83 107 80.757 107 78 104.757 73 102 73M102 81C100.346 81 99 79.654 99 78S100.346 75 102 75 105 76.346 105 78 103.654 81 102 81" fill="#ffffff" data-fill-palette-color="quaternary"></path><path d="M49.293 78.707A0.997 0.997 0 0 0 50.707 78.707L75 54.414V64H77V52A1 1 0 0 0 76 51H64V53H73.586L50 76.586 32.707 59.293A1 1 0 0 0 31.293 59.293L15.293 75.293 16.707 76.707 32 61.414z" fill="#ffffff" data-fill-palette-color="quaternary"></path><path d="M80 71H68V73H77.586L50 100.586 33.707 84.293A1 1 0 0 0 32.293 84.293L17.293 99.293 18.707 100.707 33 86.414 49.293 102.707A0.997 0.997 0 0 0 50.707 102.707L79 74.414V84H81V72A1 1 0 0 0 80 71" fill="#ffffff" data-fill-palette-color="quaternary"></path><path d="M90 97C91.654 97 93 98.346 93 100H95A5.01 5.01 0 0 0 91 95.101V92H89V95.101A5.01 5.01 0 0 0 85 100C85 102.757 87.243 105 90 105 91.654 105 93 106.346 93 108S91.654 111 90 111 87 109.654 87 108H85A5.01 5.01 0 0 0 89 112.899V116H91V112.899A5.01 5.01 0 0 0 95 108C95 105.243 92.757 103 90 103 88.346 103 87 101.654 87 100S88.346 97 90 97" fill="#ffffff" data-fill-palette-color="quaternary"></path><path d="M74 97C75.654 97 77 98.346 77 100H79A5.01 5.01 0 0 0 75 95.101V92H73V95.101A5.01 5.01 0 0 0 69 100C69 102.757 71.243 105 74 105 75.654 105 77 106.346 77 108S75.654 111 74 111 71 109.654 71 108H69A5.01 5.01 0 0 0 73 112.899V116H75V112.899A5.01 5.01 0 0 0 79 108C79 105.243 76.757 103 74 103 72.346 103 71 101.654 71 100S72.346 97 74 97" fill="#ffffff" data-fill-palette-color="quaternary"></path></svg></g></svg></g><g id="text-0"></g><g id="text-1"></g></svg></g></svg></g></svg></g></svg></g><defs></defs><mask id="c917e550-7b65-4a4d-93e5-fae780661ce0"><g id="SvgjsG5074"><svg viewBox="0 0 279.72 279.72" height="279.72" width="279.72"><g><svg viewBox="0 0 279.72 279.72" height="279.72" width="279.72"><g><svg viewBox="0 0 279.72 279.72" height="279.72" width="279.72"><g id="SvgjsG5073"><svg viewBox="0 0 279.72 279.72" height="279.72" width="279.72" id="SvgjsSvg5072"><g><svg viewBox="0 0 279.72 279.72" height="279.72" width="279.72"><g transform="matrix(1,0,0,1,57.446704652707865,57.446704652707865)"><svg viewBox="0 0 164.8265906945843 164.8265906945843" height="164.8265906945843" width="164.8265906945843"><g id="SvgjsG5071"><circle r="82" cx="82.41329534729215" cy="82.41329534729215" fill="black"></circle><svg xmlns="http://www.w3.org/2000/svg" xmlns:xlink="http://www.w3.org/1999/xlink" version="1.1" x="24.72398860418764" y="24.723988604187646" viewBox="0 0 128 128" style="enable-background:new 0 0 128 128;" xml:space="preserve" height="115.378613486209" width="115.378613486209" class="icon-jxe-0" data-fill-palette-color="quaternary" id="SvgjsSvg5070"><path d="M117 65.08V18A1 1 0 0 0 116 17H101V6A1 1 0 0 0 100 5H24A1 1 0 0 0 23 6V17H16C9.935 17 5 21.935 5 28V114C5 118.963 9.038 123 14 123H108C112.962 123 117 118.963 117 114V90.92C120.387 90.432 123 87.519 123 84V72C123 68.481 120.387 65.568 117 65.08M115 19V37H101V19zM99 37H93V7H99zM91 7V37H85V7zM82 7H83V37H77V22A1 1 0 0 0 76 21C72.14 21 69 17.859 69 14A1 1 0 0 0 68 13H40A1 1 0 0 0 39 14C39 17.859 35.86 21 32 21A1 1 0 0 0 31 22V37H25V7zM75 37H33V22.944A9.02 9.02 0 0 0 40.945 15H67.055A9.02 9.02 0 0 0 75 22.944zM16 19H23V37H16C11.038 37 7 32.963 7 28S11.038 19 16 19M108 121H14C10.14 121 7 117.859 7 114V34.318C7.053 34.393 7.117 34.46 7.171 34.534 7.336 34.757 7.507 34.975 7.689 35.185 7.783 35.294 7.88 35.398 7.978 35.503 8.158 35.696 8.345 35.881 8.539 36.06 8.642 36.155 8.743 36.251 8.849 36.342 9.074 36.535 9.309 36.716 9.549 36.891 9.631 36.951 9.709 37.016 9.793 37.074 10.121 37.299 10.461 37.507 10.813 37.696 10.892 37.738 10.975 37.772 11.055 37.813 11.333 37.954 11.616 38.086 11.908 38.203 12.037 38.255 12.168 38.299 12.299 38.346A11 11 0 0 0 13.504 38.704C13.781 38.768 14.062 38.819 14.346 38.862 14.476 38.882 14.604 38.906 14.736 38.922 15.151 38.969 15.572 39 16 39H115V65H102C94.832 65 89 70.832 89 78S94.832 91 102 91H115V114C115 117.859 111.86 121 108 121M121 84C121 86.757 118.757 89 116 89H102C95.935 89 91 84.065 91 78S95.935 67 102 67H116C118.757 67 121 69.243 121 72z" fill="black"></path><path d="M102 73C99.243 73 97 75.243 97 78S99.243 83 102 83 107 80.757 107 78 104.757 73 102 73M102 81C100.346 81 99 79.654 99 78S100.346 75 102 75 105 76.346 105 78 103.654 81 102 81" fill="black"></path><path d="M49.293 78.707A0.997 0.997 0 0 0 50.707 78.707L75 54.414V64H77V52A1 1 0 0 0 76 51H64V53H73.586L50 76.586 32.707 59.293A1 1 0 0 0 31.293 59.293L15.293 75.293 16.707 76.707 32 61.414z" fill="black"></path><path d="M80 71H68V73H77.586L50 100.586 33.707 84.293A1 1 0 0 0 32.293 84.293L17.293 99.293 18.707 100.707 33 86.414 49.293 102.707A0.997 0.997 0 0 0 50.707 102.707L79 74.414V84H81V72A1 1 0 0 0 80 71" fill="black"></path><path d="M90 97C91.654 97 93 98.346 93 100H95A5.01 5.01 0 0 0 91 95.101V92H89V95.101A5.01 5.01 0 0 0 85 100C85 102.757 87.243 105 90 105 91.654 105 93 106.346 93 108S91.654 111 90 111 87 109.654 87 108H85A5.01 5.01 0 0 0 89 112.899V116H91V112.899A5.01 5.01 0 0 0 95 108C95 105.243 92.757 103 90 103 88.346 103 87 101.654 87 100S88.346 97 90 97" fill="black"></path><path d="M74 97C75.654 97 77 98.346 77 100H79A5.01 5.01 0 0 0 75 95.101V92H73V95.101A5.01 5.01 0 0 0 69 100C69 102.757 71.243 105 74 105 75.654 105 77 106.346 77 108S75.654 111 74 111 71 109.654 71 108H69A5.01 5.01 0 0 0 73 112.899V116H75V112.899A5.01 5.01 0 0 0 79 108C79 105.243 76.757 103 74 103 72.346 103 71 101.654 71 100S72.346 97 74 97" fill="black"></path></svg></g></svg></g><g id="SvgjsG5069"><path d="M29.306 111.788l-25.434-11.095 0.657-2.278 25.434 11.095z" fill="white"></path><path d="M33.333 100.106l-23.202-15.938 0.33-0.648 26.194-2.67 2.096-0.139-1.653-1.168-17.933-12.3 1.06-2.077 22.936 15.758-0.675 1.323-2.919 0.592-20.829 2.24-3.202 0.269 2.732 1.617 16.125 11.064z" fill="white"></path><path d="M48.408 73.26l-18.275-20.882 11.284-12.835 1.511 1.753-9.718 11.053 6.553 7.473 7.408-8.427 1.504 1.76-7.382 8.397 8.68 9.926z" fill="white"></path><path d="M65.39 55.098l-14.887-23.417 1.819-1.522 14.887 23.417z" fill="white"></path><path d="M75.261 47.663l-10.332-26.185 0.636-0.352 23.213 12.425 1.816 1.056-0.719-1.892-7.996-20.222 2.04-1.131 10.213 25.887-1.299 0.719-2.751-1.14-18.525-9.784-2.805-1.567 1.361 2.868 7.187 18.187z" fill="white"></path><path d="M103.361 33.543l-5.085-27.279 2.254-0.735 5.086 27.279z" fill="white"></path><path d="M121.912 29.356l-0.279-25.473-9.047 1.282 0.01-2.276 20.383-2.889 0.039 2.269-9.037 1.281 0.24 25.478z" fill="white"></path><path d="M149.647 28.788c-1.787-0.149-3.31-0.673-4.569-1.571-1.258-0.898-2.176-2.085-2.753-3.559-0.577-1.475-0.79-3.119-0.638-4.933v0c0.049-0.589 0.14-1.202 0.273-1.837v0l3.593-16.449 2.323 0.194-3.605 16.607c-0.126 0.556-0.212 1.102-0.257 1.639v0c-0.185 2.218 0.265 4.018 1.349 5.402 1.085 1.377 2.614 2.148 4.587 2.313v0c1.496 0.125 2.918-0.133 4.264-0.775 1.347-0.641 2.497-1.608 3.452-2.901 0.954-1.287 1.624-2.804 2.009-4.552v0l3.593-16.449 2.333 0.195-3.605 16.607c-0.483 2.193-1.334 4.082-2.553 5.667-1.225 1.578-2.689 2.745-4.392 3.503-1.703 0.758-3.505 1.057-5.404 0.899z" fill="white"></path><path d="M181.079 6.166l0.645 0.237 3.634 17.179 17.808-9.315 0.683 0.251-13.031 24.907-2.198-0.807 8.885-16.96c0.468-0.89 1.174-2.004 2.117-3.342v0c-2.184 1.286-4.851 2.76-8.001 4.421-3.147 1.655-5.692 2.911-7.634 3.77v0c-0.061-0.22-0.399-1.402-1.013-3.545-0.617-2.137-1.287-4.824-2.011-8.061v0c-0.166-0.57-0.28-1.097-0.344-1.58-0.07-0.485-0.13-1.006-0.18-1.563v0l-0.388 1.057c-0.249 0.68-0.503 1.255-0.76 1.727v0l-9.054 17.334-2.189-0.803z" fill="white"></path><path d="M231.982 33.768l0.498 0.474-3.509 17.205 20.045-1.452 0.526 0.502-21.871 17.657-1.696-1.615 14.904-12.019c0.783-0.63 1.874-1.371 3.273-2.222v0c-2.516 0.31-5.549 0.6-9.099 0.869-3.546 0.265-6.38 0.404-8.504 0.418v0c0.032-0.226 0.193-1.445 0.482-3.656 0.285-2.206 0.74-4.938 1.366-8.195v0c0.075-0.589 0.18-1.118 0.314-1.586 0.129-0.473 0.282-0.975 0.457-1.505v0l-0.777 0.815c-0.499 0.524-0.961 0.951-1.385 1.281v0l-15.208 12.294-1.688-1.608z" fill="white"></path><path d="M236.268 81.778c-0.696-1.116-1.131-2.371-1.305-3.767-0.17-1.389-0.051-2.729 0.359-4.017 0.418-1.287 1.129-2.337 2.132-3.152v0l1.67 1.378c-1.232 1.113-1.906 2.466-2.024 4.058-0.112 1.589 0.25 3.054 1.087 4.396v0c0.696 1.116 1.617 1.994 2.761 2.635 1.147 0.646 2.367 0.97 3.659 0.97 1.298-0.003 2.527-0.367 3.688-1.092v0c0.84-0.524 1.408-1.219 1.705-2.086 0.297-0.867 0.397-2.061 0.301-3.582v0c-0.149-2.209-0.221-3.918-0.216-5.128 0.009-1.203 0.202-2.311 0.581-3.322 0.379-1.012 1.058-1.823 2.039-2.436v0c1.206-0.753 2.48-1.089 3.821-1.01 1.347 0.076 2.608 0.483 3.782 1.222 1.174 0.739 2.129 1.698 2.863 2.876v0c0.827 1.324 1.179 2.655 1.058 3.991-0.112 1.339-0.678 2.326-1.698 2.963v0c-0.113 0.07-0.323 0.166-0.631 0.288v0l-0.913-1.991c0.719-0.316 1.065-0.891 1.036-1.727-0.028-0.836-0.299-1.665-0.813-2.488v0c-0.51-0.817-1.179-1.481-2.005-1.99-0.827-0.51-1.69-0.801-2.59-0.874-0.899-0.073-1.712 0.117-2.439 0.571v0c-0.975 0.608-1.551 1.504-1.729 2.688-0.174 1.189-0.199 2.724-0.074 4.604v0c0.059 0.597 0.095 1.206 0.105 1.825v0c0.088 1.973-0.102 3.556-0.571 4.75-0.475 1.197-1.278 2.149-2.411 2.855v0c-0.186 0.116-0.518 0.292-0.998 0.529v0c-1.486 0.669-3.019 0.921-4.601 0.757-1.588-0.16-3.054-0.659-4.398-1.495-1.344-0.837-2.421-1.903-3.23-3.199z" fill="white"></path><path d="M246.588 102.559c-0.456-1.234-0.627-2.551-0.514-3.953 0.115-1.395 0.504-2.682 1.166-3.862 0.671-1.175 1.58-2.06 2.727-2.653v0l1.356 1.687c-1.432 0.84-2.367 2.028-2.805 3.564-0.432 1.533-0.374 3.042 0.173 4.525v0c0.456 1.234 1.179 2.281 2.169 3.14 0.992 0.866 2.121 1.43 3.386 1.692 1.271 0.26 2.549 0.153 3.833-0.322v0c0.929-0.343 1.626-0.909 2.093-1.697 0.467-0.788 0.807-1.937 1.021-3.447v0c0.302-2.193 0.578-3.882 0.828-5.064 0.252-1.177 0.667-2.222 1.242-3.136 0.576-0.914 1.406-1.571 2.491-1.971v0c1.334-0.492 2.649-0.564 3.946-0.215 1.304 0.347 2.455 1.002 3.456 1.964 1 0.962 1.74 2.094 2.221 3.396v0c0.541 1.464 0.616 2.839 0.226 4.123-0.381 1.288-1.136 2.14-2.263 2.557v0c-0.125 0.046-0.35 0.097-0.676 0.154v0l-0.491-2.134c0.768-0.163 1.223-0.657 1.365-1.482 0.142-0.824 0.045-1.691-0.292-2.601v0c-0.334-0.904-0.854-1.689-1.56-2.355-0.707-0.667-1.493-1.127-2.358-1.381-0.866-0.254-1.7-0.232-2.505 0.064v0c-1.078 0.398-1.824 1.159-2.237 2.282-0.412 1.129-0.747 2.627-1.007 4.493v0c-0.063 0.597-0.152 1.2-0.267 1.809v0c-0.314 1.95-0.821 3.462-1.523 4.535-0.707 1.076-1.687 1.845-2.94 2.307v0c-0.206 0.076-0.567 0.181-1.083 0.316v0c-1.59 0.354-3.143 0.29-4.66-0.192-1.522-0.479-2.857-1.264-4.004-2.356-1.147-1.092-1.985-2.355-2.514-3.788z" fill="white"></path><path d="M11.431 143.255c0-1.79 1.451-3.241 3.24-3.24 1.79 0 3.241 1.451 3.241 3.24 0 1.79-1.451 3.241-3.241 3.241-1.79 0-3.241-1.451-3.24-3.241z" fill="white"></path><path d="M262.291 143.255c0-1.79 1.451-3.241 3.24-3.24 1.79 0 3.241 1.451 3.241 3.24 0 1.79-1.451 3.241-3.241 3.241-1.79 0-3.241-1.451-3.24-3.241z" fill="white"></path></g><g id="SvgjsG5068"><path d="M10.409 180.432l24.477-4.968 5.001 14.549-2.045 0.398-4.308-12.533-8.762 1.789 3.281 9.546-2.045 0.397-3.271-9.517-11.634 2.355z" fill="white"></path><path d="M17.975 201.114l17.366-5.745 0.912 1.884-17.363 5.754zM38.03 195.596c-0.168-0.347-0.19-0.698-0.066-1.053 0.123-0.355 0.359-0.616 0.705-0.784v0c0.431-0.208 0.86-0.243 1.29-0.104 0.429 0.139 0.738 0.403 0.925 0.792v0c0.179 0.371 0.207 0.734 0.084 1.089-0.123 0.355-0.368 0.621-0.732 0.797v0c-0.413 0.2-0.836 0.224-1.271 0.073-0.435-0.151-0.746-0.421-0.935-0.81z" fill="white"></path><path d="M34.92 205.515c0.403-0.171 0.786-0.373 1.15-0.606v0c1.018-0.652 1.668-1.454 1.95-2.407v0l1.845 0.535c-0.063 0.616-0.267 1.185-0.613 1.705-0.34 0.517-0.767 0.952-1.282 1.306v0c1.46 0.186 2.696 0.565 3.711 1.139 1.01 0.568 1.874 1.412 2.589 2.53v0c0.87 1.36 1.202 2.642 0.995 3.847-0.198 1.207-0.948 2.228-2.252 3.062v0c-0.425 0.272-0.775 0.465-1.05 0.578v0l-11.451 5.27-1.111-1.738 11.203-5.194c0.473-0.247 0.79-0.423 0.952-0.527v0c1.79-1.146 2.1-2.634 0.93-4.463v0c-0.648-1.013-1.474-1.742-2.478-2.189-1.003-0.446-2.339-0.783-4.005-1.009v0l-11.695 5.426-1.133-1.771z" fill="white"></path><path d="M39.959 234.452c-1.43-1.564-1.999-3.249-1.707-5.055 0.292-1.807 1.257-3.459 2.895-4.956v0c0.426-0.39 0.88-0.755 1.36-1.096v0c1.514-1.061 3.094-1.745 4.74-2.053 1.641-0.312 3.223-0.216 4.748 0.29 1.529 0.501 2.879 1.391 4.049 2.67v0c0.883 0.966 1.755 2.081 2.615 3.347v0l1.446 1.581-10.687 7.465c-0.458 0.356-0.785 0.623-0.981 0.802v0c-0.946 0.865-1.491 1.755-1.636 2.671v0l-1.798-0.313c0.003-0.597 0.162-1.251 0.475-1.961 0.319-0.715 0.636-1.185 0.952-1.41v0c-1.221 0.171-2.421 0.085-3.6-0.26-1.179-0.344-2.136-0.918-2.871-1.722zM41.474 233.215c0.749 0.819 1.629 1.378 2.641 1.677 1.011 0.308 2.034 0.349 3.069 0.123v0c0.842-0.122 1.59-0.432 2.242-0.93v0l7.83-5.391-1.414-1.651-1.368-1.598c-1.399-1.529-3.066-2.309-5.002-2.339-1.941-0.026-3.826 0.605-5.656 1.891v0c-0.441 0.305-0.849 0.627-1.221 0.968v0c-1.23 1.125-1.98 2.333-2.25 3.624-0.274 1.295 0.102 2.504 1.129 3.626z" fill="white"></path><path d="M61.026 236.718c0.324-0.294 0.62-0.611 0.887-0.951v0c0.747-0.951 1.096-1.922 1.047-2.915v0l1.918-0.103c0.143 0.603 0.138 1.206-0.016 1.812-0.15 0.6-0.41 1.152-0.781 1.655v0c1.439-0.305 2.732-0.354 3.879-0.147 1.141 0.204 2.234 0.716 3.279 1.537v0c1.27 0.997 2.005 2.099 2.207 3.304 0.211 1.205-0.161 2.416-1.118 3.633v0c-0.312 0.397-0.579 0.694-0.801 0.891v0l-9.076 8.748-1.622-1.274 8.867-8.595c0.365-0.389 0.607-0.66 0.726-0.811v0c1.313-1.672 1.115-3.179-0.593-4.521v0c-0.946-0.743-1.966-1.159-3.06-1.25-1.094-0.091-2.466 0.031-4.115 0.367v0l-9.254 8.975-1.653-1.298z" fill="white"></path><path d="M73.829 261.75c-1.138-0.632-2.025-1.417-2.66-2.354-0.643-0.935-1.13-2.003-1.458-3.203v0l1.809-0.569c0.322 1.007 0.742 1.879 1.261 2.615 0.515 0.742 1.214 1.358 2.096 1.848v0c1.225 0.68 2.384 0.906 3.477 0.677 1.096-0.235 1.942-0.89 2.538-1.964v0c0.258-0.465 0.348-0.92 0.269-1.367-0.085-0.45-0.267-0.881-0.546-1.295-0.276-0.419-0.797-1.157-1.564-2.213v0c-0.717-0.953-1.26-1.733-1.629-2.341-0.367-0.599-0.585-1.21-0.657-1.835-0.069-0.616 0.073-1.24 0.425-1.873v0c0.139-0.25 0.252-0.434 0.34-0.551v0c0.831-1.142 1.919-1.814 3.264-2.018 1.341-0.213 2.721 0.075 4.137 0.861v0c0.755 0.419 1.426 0.936 2.012 1.55 0.583 0.62 0.995 1.259 1.237 1.918v0l-1.609 0.805c-0.485-1.014-1.341-1.862-2.567-2.542v0c-1.051-0.584-2-0.811-2.847-0.681-0.85 0.136-1.505 0.616-1.963 1.441v0c-0.235 0.424-0.304 0.849-0.206 1.276 0.092 0.423 0.262 0.822 0.51 1.195 0.248 0.374 0.726 1.045 1.434 2.016v0c1.137 1.482 1.876 2.698 2.215 3.646 0.345 0.952 0.242 1.924-0.309 2.917v0c-0.164 0.296-0.299 0.51-0.403 0.643v0c-0.988 1.328-2.262 2.117-3.822 2.368-1.563 0.257-3.158-0.067-4.784-0.97z" fill="white"></path><path d="M85.515 267.293l9.324-15.738 1.924 0.823-9.315 15.741zM97.015 249.961c-0.354-0.151-0.601-0.401-0.741-0.751-0.14-0.349-0.134-0.7 0.017-1.054v0c0.188-0.44 0.489-0.748 0.905-0.925 0.415-0.177 0.821-0.18 1.218-0.011v0c0.379 0.162 0.638 0.417 0.778 0.766 0.14 0.349 0.13 0.709-0.029 1.082v0c-0.18 0.422-0.484 0.718-0.911 0.89-0.427 0.171-0.839 0.172-1.237 0.003z" fill="white"></path><path d="M90.525 279.535c-0.621-0.195-1.122-0.519-1.501-0.972-0.376-0.445-0.627-0.952-0.755-1.522v0l1.991-0.555c0.094 0.587 0.386 0.956 0.874 1.11v0c0.507 0.159 0.939 0.093 1.295-0.2 0.356-0.292 0.625-0.65 0.806-1.073v0l10.062-21.657 1.997 0.626-10.094 21.793c-0.527 1.102-1.199 1.859-2.018 2.271-0.827 0.416-1.712 0.476-2.657 0.179zM105.266 252.85c-0.368-0.115-0.638-0.34-0.812-0.672-0.174-0.333-0.203-0.683-0.088-1.051v0c0.143-0.456 0.412-0.793 0.808-1.011 0.395-0.217 0.802-0.26 1.22-0.129v0c0.393 0.123 0.676 0.351 0.851 0.685 0.168 0.331 0.191 0.69 0.069 1.077v0c-0.137 0.437-0.41 0.763-0.818 0.975-0.408 0.213-0.818 0.255-1.23 0.126z" fill="white"></path><path d="M110.523 275.846c-1.272-0.277-2.347-0.774-3.224-1.488-0.885-0.71-1.659-1.592-2.32-2.648v0l1.569-1.065c0.599 0.872 1.252 1.585 1.96 2.141 0.707 0.562 1.554 0.951 2.54 1.166v0c1.369 0.299 2.544 0.181 3.525-0.354 0.981-0.541 1.603-1.411 1.865-2.612v0c0.113-0.519 0.068-0.981-0.137-1.386-0.211-0.406-0.509-0.767-0.896-1.083-0.385-0.322-1.097-0.878-2.134-1.669v0c-0.961-0.706-1.706-1.297-2.235-1.772-0.524-0.468-0.909-0.99-1.157-1.568-0.243-0.57-0.287-1.208-0.133-1.916v0c0.061-0.279 0.117-0.488 0.167-0.626v0c0.467-1.333 1.315-2.29 2.544-2.872 1.223-0.59 2.627-0.712 4.21-0.367v0c0.844 0.184 1.635 0.486 2.373 0.905 0.737 0.426 1.316 0.919 1.737 1.48v0l-1.309 1.234c-0.757-0.831-1.82-1.396-3.19-1.695v0c-1.175-0.256-2.149-0.2-2.923 0.168-0.775 0.375-1.263 1.023-1.464 1.945v0c-0.103 0.474-0.047 0.901 0.169 1.281 0.21 0.379 0.487 0.711 0.833 0.998 0.346 0.286 0.997 0.792 1.954 1.517v0c1.516 1.092 2.573 2.043 3.171 2.854 0.605 0.812 0.786 1.773 0.545 2.883v0c-0.072 0.331-0.139 0.575-0.201 0.731v0c-0.564 1.556-1.557 2.679-2.978 3.369-1.423 0.696-3.043 0.846-4.861 0.449z" fill="white"></path><path d="M133.162 268.686l4.766 10.154-2.236-0.165-4.098-8.506c-0.362-0.606-1.145-0.954-2.351-1.043v0l-1.629-0.12-1.849 8.936-2.097-0.155 5.403-25.949 2.087 0.154-3.112 15.087 1.192 0.088c0.749 0.055 1.384 0.072 1.905 0.051 0.522-0.028 0.982-0.124 1.38-0.288v0c0.898-0.34 1.749-0.953 2.554-1.84 0.805-0.886 1.464-1.787 1.978-2.701 0.514-0.921 0.808-1.559 0.88-1.913v0l1.908 0.28c-0.18 0.813-0.671 1.819-1.472 3.019-0.808 1.199-1.7 2.276-2.676 3.23-0.976 0.954-1.82 1.514-2.532 1.681z" fill="white"></path><path d="M144.324 278.77l1.581-18.224 2.09-0.093-1.571 18.224zM147.175 258.166c-0.385 0.017-0.716-0.101-0.993-0.355-0.277-0.254-0.425-0.573-0.442-0.958v0c-0.021-0.478 0.117-0.886 0.414-1.225 0.297-0.339 0.662-0.518 1.094-0.538v0c0.411-0.018 0.756 0.099 1.033 0.353 0.277 0.254 0.425 0.583 0.443 0.988v0c0.02 0.458-0.125 0.857-0.436 1.196-0.311 0.34-0.682 0.519-1.113 0.539z" fill="white"></path><path d="M172.538 275.171c-1.262 0.32-2.445 0.356-3.55 0.109-1.109-0.24-2.195-0.684-3.257-1.333v0l0.927-1.654c0.925 0.512 1.828 0.859 2.71 1.04 0.884 0.187 1.815 0.157 2.794-0.091v0c1.359-0.345 2.357-0.975 2.995-1.891 0.637-0.922 0.804-1.979 0.502-3.17v0c-0.131-0.515-0.378-0.908-0.741-1.179-0.37-0.269-0.798-0.459-1.286-0.569-0.489-0.116-1.374-0.296-2.655-0.539v0c-1.175-0.202-2.106-0.398-2.791-0.588-0.677-0.185-1.256-0.48-1.736-0.886-0.472-0.401-0.797-0.953-0.974-1.654v0c-0.07-0.277-0.114-0.489-0.131-0.636v0c-0.177-1.401 0.154-2.636 0.993-3.705 0.831-1.074 2.032-1.811 3.603-2.209v0c0.837-0.212 1.679-0.296 2.528-0.25 0.849 0.052 1.588 0.235 2.215 0.548v0l-0.62 1.689c-1.049-0.406-2.252-0.436-3.611-0.092v0c-1.165 0.296-2.012 0.781-2.54 1.456-0.526 0.682-0.673 1.48-0.441 2.394v0c0.119 0.47 0.36 0.827 0.723 1.071 0.357 0.245 0.754 0.419 1.191 0.52 0.437 0.102 1.246 0.263 2.426 0.485v0c1.844 0.3 3.215 0.679 4.112 1.137 0.904 0.456 1.495 1.235 1.775 2.336v0c0.083 0.328 0.132 0.576 0.147 0.744v0c0.191 1.644-0.196 3.093-1.16 4.344-0.962 1.258-2.345 2.116-4.148 2.573z" fill="white"></path><path d="M191.589 268.741c-1.953 0.822-3.732 0.791-5.335-0.091-1.603-0.882-2.835-2.346-3.696-4.391v0c-0.224-0.533-0.416-1.083-0.575-1.65v0c-0.49-1.783-0.604-3.501-0.34-5.154 0.257-1.65 0.88-3.109 1.868-4.374 0.986-1.272 2.278-2.244 3.876-2.917v0c1.206-0.507 2.55-0.954 4.031-1.338v0l1.975-0.831 3.439 12.574c0.181 0.551 0.323 0.949 0.427 1.193v0c0.497 1.182 1.152 1.994 1.965 2.438v0l-0.899 1.589c-0.561-0.204-1.124-0.572-1.687-1.106-0.566-0.54-0.902-0.997-1.008-1.371v0c-0.249 1.207-0.734 2.308-1.454 3.303-0.72 0.995-1.583 1.703-2.587 2.126zM190.933 266.898c1.023-0.43 1.845-1.071 2.466-1.923 0.63-0.849 1.013-1.799 1.147-2.85v0c0.168-0.835 0.127-1.643-0.122-2.424v0l-2.447-9.186-2.03 0.778-1.965 0.75c-1.911 0.804-3.205 2.112-3.884 3.925-0.676 1.819-0.716 3.807-0.119 5.963v0c0.139 0.518 0.306 1.01 0.502 1.476v0c0.646 1.537 1.532 2.649 2.657 3.336 1.128 0.693 2.392 0.745 3.795 0.155z" fill="white"></path><path d="M199.245 248.034c-0.321-0.284-0.688-0.516-1.101-0.695-0.416-0.185-0.818-0.268-1.208-0.25v0l0.272-2.012c1.35 0.058 2.677 0.758 3.984 2.101v0l8.807 8.565-1.815-16.931 1.81-1.146 2.137 20.029-1.86 1.178z" fill="white"></path><path d="M219.172 242.72c0.515 0.705 0.829 1.123 0.943 1.253v0c0.932 1.074 1.988 1.753 3.168 2.04 1.176 0.29 2.476-0.183 3.901-1.42v0c0.783-0.679 1.414-1.412 1.893-2.197 0.484-0.79 0.947-1.777 1.389-2.96v0l1.647 0.681c-0.341 1.158-0.834 2.267-1.478 3.329-0.649 1.056-1.42 1.972-2.314 2.746v0c-1.656 1.437-3.352 2.047-5.088 1.83-1.741-0.213-3.342-1.159-4.8-2.84v0c-0.361-0.416-0.713-0.877-1.054-1.381v0c-0.94-1.418-1.602-2.955-1.983-4.611-0.378-1.651-0.385-3.251-0.021-4.798 0.364-1.547 1.158-2.852 2.381-3.914v0c0.948-0.823 1.978-1.339 3.091-1.548 1.108-0.214 2.201-0.125 3.279 0.267 1.074 0.396 2.022 1.068 2.846 2.017v0c0.139 0.161 0.35 0.439 0.633 0.836v0c0.276 0.429 0.55 0.912 0.823 1.45v0c0.076 0.118 0.227 0.383 0.452 0.794v0zM218.17 241.003l8.052-7.172-0.39-0.677c-0.094-0.138-0.252-0.336-0.474-0.592v0c-0.871-1.003-1.91-1.557-3.118-1.661-1.203-0.099-2.296 0.278-3.28 1.131v0c-1.094 0.949-1.728 2.225-1.902 3.828-0.175 1.603 0.196 3.317 1.112 5.143z" fill="white"></path><path d="M242.337 232.573c-0.969 1.103-1.963 1.706-2.983 1.809-1.02 0.094-2.082-0.343-3.184-1.312v0c-0.344-0.303-0.694-0.654-1.05-1.055v0l-11.527-13.164 1.388-1.58 3.025 3.427 3.63-4.132 1.303 1.476-3.657 4.162 7.304 8.354c0.369 0.386 0.615 0.633 0.74 0.743v0c0.818 0.719 1.502 1.023 2.05 0.912 0.553-0.116 1.059-0.436 1.52-0.959v0c0.32-0.364 0.567-0.7 0.74-1.008 0.177-0.313 0.319-0.71 0.424-1.193v0l1.855 0.516c-0.188 1.019-0.714 2.021-1.578 3.004z" fill="white"></path><path d="M238.611 215.714c-0.319-0.301-0.657-0.571-1.017-0.81v0c-1.006-0.671-2.001-0.945-2.987-0.82v0l-0.25-1.904c0.59-0.189 1.192-0.231 1.807-0.123 0.61 0.104 1.18 0.32 1.711 0.65v0c-0.416-1.412-0.564-2.697-0.446-3.856 0.115-1.153 0.541-2.282 1.279-3.387v0c0.896-1.343 1.938-2.161 3.124-2.455 1.185-0.303 2.421-0.025 3.709 0.834v0c0.42 0.28 0.737 0.524 0.95 0.73v0l9.422 8.374-1.145 1.716-9.254-8.178c-0.416-0.334-0.704-0.554-0.864-0.661v0c-1.768-1.18-3.255-0.867-4.461 0.94v0c-0.668 1-1.004 2.049-1.011 3.147-0.006 1.098 0.221 2.456 0.683 4.074v0l9.662 8.535-1.167 1.748z" fill="white"></path><path d="M260.049 205.552l-15.181-10.205 0.93-1.875 15.186 10.196zM243.399 193.083c-0.171 0.345-0.435 0.578-0.791 0.697-0.356 0.12-0.707 0.094-1.052-0.077v0c-0.428-0.213-0.719-0.531-0.872-0.955-0.153-0.424-0.133-0.83 0.059-1.217v0c0.183-0.369 0.453-0.613 0.809-0.733 0.356-0.12 0.716-0.09 1.079 0.09v0c0.411 0.204 0.689 0.524 0.836 0.96 0.147 0.436 0.124 0.848-0.068 1.235z" fill="white"></path><path d="M258.384 183.987l11.057-1.881-0.756 2.111-9.291 1.677c-0.681 0.187-1.225 0.849-1.633 1.987v0l-0.552 1.538 8.118 4.169-0.709 1.979-23.564-12.138 0.706-1.97 13.708 7.029 0.404-1.125c0.253-0.707 0.439-1.314 0.557-1.822 0.112-0.51 0.143-0.979 0.092-1.407v0c-0.088-0.956-0.452-1.94-1.091-2.952-0.639-1.012-1.331-1.888-2.075-2.628-0.75-0.742-1.287-1.195-1.609-1.36v0l0.78-1.763c0.735 0.39 1.574 1.132 2.516 2.224 0.94 1.099 1.739 2.246 2.397 3.442 0.658 1.196 0.973 2.159 0.945 2.89z" fill="white"></path></g></svg></g></svg></g></svg></g></svg></g><defs><mask></mask></defs></svg><rect width="279.72" height="279.72" fill="black" stroke="none" visibility="hidden"></rect></g></mask><linearGradient x1="0.054" x2="0.941" y1="0.5" y2="0.5" id="1e1694da-c18a-4646-84ad-611f5b1f74e1"><stop stop-color="#0f3054" offset="0"></stop><stop stop-color="#3b8dcb" offset="0.498"></stop><stop stop-color="#0f3054" offset="1"></stop></linearGradient><rect width="279.72" height="279.72" fill="url(#1e1694da-c18a-4646-84ad-611f5b1f74e1)" mask="url(#c917e550-7b65-4a4d-93e5-fae780661ce0)" data-fill-palette-color="primary"></rect></svg><rect width="279.72" height="279.72" fill="none" stroke="none" visibility="hidden"></rect></g></svg></g></svg>